<svg xmlns="http://www.w3.org/2000/svg" width="900" height="520"><rect width="100%" height="100%" fill="#ffffff"/><text x="450" y="24" text-anchor="middle" font-size="18">Token Usage Per Task</text><line x1="80" y1="40" x2="80" y2="360" stroke="#222"/><line x1="80" y1="360" x2="880" y2="360" stroke="#222"/><rect x="80.00" y="40.00" width="123.33" height="320.00" fill="#16a34a"/><rect x="215.33" y="119.10" width="123.33" height="240.90" fill="#16a34a"/><rect x="350.67" y="124.49" width="123.33" height="235.51" fill="#16a34a"/><rect x="486.00" y="149.66" width="123.33" height="210.34" fill="#16a34a"/><rect x="621.33" y="300.67" width="123.33" height="59.33" fill="#16a34a"/><rect x="756.67" y="311.46" width="123.33" height="48.54" fill="#16a34a"/><text x="141.67" y="380" text-anchor="end" transform="rotate(-35 141.67,380)" font-size="11">baseline_full_document_embedding</text><text x="277.00" y="380" text-anchor="end" transform="rotate(-35 277.00,380)" font-size="11">baseline_large_context_ingestion</text><text x="412.33" y="380" text-anchor="end" transform="rotate(-35 412.33,380)" font-size="11">baseline_document_parsing</text><text x="547.67" y="380" text-anchor="end" transform="rotate(-35 547.67,380)" font-size="11">baseline_transcript_extraction</text><text x="683.00" y="380" text-anchor="end" transform="rotate(-35 683.00,380)" font-size="11">mcp_document_parsing</text><text x="818.33" y="380" text-anchor="end" transform="rotate(-35 818.33,380)" font-size="11">mcp_transcript_extraction</text><text x="141.67" y="34.00" text-anchor="middle" font-size="11">1780</text><text x="277.00" y="113.10" text-anchor="middle" font-size="11">1340</text><text x="412.33" y="118.49" text-anchor="middle" font-size="11">1310</text><text x="547.67" y="143.66" text-anchor="middle" font-size="11">1170</text><text x="683.00" y="294.67" text-anchor="middle" font-size="11">330</text><text x="818.33" y="305.46" text-anchor="middle" font-size="11">270</text><text x="450" y="500" text-anchor="middle" font-size="12">Task</text><text x="24" y="260" transform="rotate(-90,24,260)" text-anchor="middle" font-size="12">Total Tokens</text></svg>